<?xml version="1.0" encoding="UTF-8" standalone="no"?>
<svg xmlns="http://www.w3.org/2000/svg"
     xml:space="preserve"
     width="1024"
     height="1024"
     viewBox="0 0 270.933 270.933">
  <path d="M226.611-28.516a47.99 47.99 0 0 0-47.992 47.993 47.99 47.99 0 0 0 43.178 47.648V46.12a20.164 20.164 0 0 1-15.989-19.67l.015-.2h-.015V6.468h8.35v19.788h.06a11.77 12.5 0 0 0-.016.194 11.77 12.5 0 0 0 11.77 12.5 11.77 12.5 0 0 0 11.77-12.5 11.77 12.5 0 0 0-.015-.194h.06V16.98h8.35v9.27h-.015l.014.201a20.164 20.164 0 0 1-15.988 19.67v21.095a47.99 47.99 0 0 0 44.455-47.74 47.99 47.99 0 0 0-47.992-47.992M205.808-15.72h8.35v12.38h-8.35zm31.978 0h8.35V7.17h-8.35zm-11.814 43.243a3.737 3.737 0 0 1 3.738 3.737 3.737 3.737 0 0 1-3.738 3.737 3.737 3.737 0 0 1-3.737-3.737 3.737 3.737 0 0 1 3.737-3.737"
        style="display:inline;fill:#5b2333;fill-opacity:1;stroke-width:.467147"
        transform="translate(-353.385 70.164)scale(2.15849)" />
  <path d="m21.755 128.852 5.181-13.335h3.277l5.181 13.335h-3.238l-.972-2.534h-5.22l-.97 2.534zm5.2-5.239h3.22l-1.6-4.267zm9.887 5.24v-13.336h3.067v10.516h5.677v2.82zm10.383 0v-13.336h3.067v10.516h5.676v2.82zm17.735 0v-10.517h-3.886v-2.819h10.82v2.82h-3.886v10.515zm13.868.247q-1.714 0-2.971-.648-1.239-.648-1.905-1.829-.667-1.2-.667-2.838v-8.268h3.067v8.268q0 .762.305 1.314.305.553.857.857.572.305 1.353.305.762 0 1.333-.305.572-.304.876-.857t.305-1.314v-8.268h3.067v8.268q0 1.638-.686 2.838-.666 1.181-1.943 1.829-1.257.648-2.99.648m8.02-.248v-13.335h3.22l5.848 8.134v-8.134h3.067v13.335h-3.067l-6-8.363v8.363zm14.726 0v-13.335h8.687v2.82h-5.62v2.438h4.706v2.724h-4.706v2.534h5.715v2.82zm11.183 0v-13.335h5.238q1.448 0 2.572.572 1.124.552 1.753 1.562.647.99.647 2.286 0 1.314-.685 2.343-.667 1.01-1.791 1.543l3.01 5.03h-3.505l-2.553-4.478h-1.619v4.477zm3.067-7.296h2.076q.533 0 .953-.21t.647-.571q.248-.381.248-.838 0-.705-.534-1.162-.514-.458-1.371-.458h-2.02z"
        style="fill:#2c2826;stroke-width:.264583"
        transform="translate(-35.578 -16.34)scale(2.15849)" />
  <path d="M125.11 119.034v-3.458h.677v2.84h1.521v.618zm2.317 0 1.363-3.458h.72l1.364 3.458h-.716l-.296-.761h-1.423l-.296.76zm1.234-1.359h.978l-.489-1.254zm2.628 1.359v-3.458h1.17q.356 0 .623.109.266.109.415.33.148.218.148.544 0 .203-.104.376-.099.167-.282.29.243.124.37.332.134.202.134.489 0 .316-.143.538t-.4.336-.603.114zm.662-.598h.602q.242 0 .38-.119.139-.123.139-.326 0-.212-.153-.33-.153-.124-.42-.124h-.548zm0-1.452h.523q.222 0 .35-.114.13-.113.13-.32t-.144-.322q-.143-.113-.39-.113h-.47zm3.521 2.109q-.262 0-.489-.064-.227-.065-.405-.178-.178-.119-.296-.262-.114-.143-.148-.301l.661-.198q.065.168.228.292.163.118.41.123.261.005.424-.113.168-.119.168-.307 0-.163-.133-.271-.128-.114-.356-.173l-.45-.119q-.251-.064-.444-.192-.192-.134-.3-.326-.11-.193-.11-.45 0-.489.321-.76.326-.277.92-.277.33 0 .577.099.252.094.42.272.168.177.257.42l-.657.202q-.06-.168-.218-.287t-.4-.118q-.247 0-.39.113-.138.114-.138.321 0 .163.109.257.113.094.306.144l.454.113q.445.109.692.39t.247.628q0 .306-.149.538-.148.227-.43.355-.28.129-.68.129"
        style="fill:#928e8d;stroke-width:.264583"
        transform="translate(-35.578 -16.34)scale(2.15849)" />
</svg>
