<svg xmlns="http://www.w3.org/2000/svg" viewBox="0 0 1200 260" fill="none">
  <path d="M20 220 L80 220 L80 200 L120 200 L120 220 L170 220 L170 195 L220 195 L220 220 L240 220 L240 130 L256 130 L256 220 L280 220 L280 205 L320 205 L320 220 L340 220 L340 200 L360 190 L380 200 L400 190 L420 200 L440 190 L460 200 L480 200 L480 220 L520 220 L520 140 L538 140 L538 220 L560 220 L560 190 L630 190 L630 220 L660 220 L660 115 L676 115 L676 220 L700 220 L700 200 L735 200 L735 180 L770 180 L770 220 L800 220 L800 150 L816 150 L816 220 L882 220 C882 100, 904 55, 915 55 C926 55, 948 100, 948 220 L1040 220 L1040 205 L1080 205 L1080 220 L1120 220 L1120 190 L1160 190 L1160 220 L1180 220" stroke="currentColor" stroke-width="6" stroke-linecap="round" stroke-linejoin="round"/>
</svg>
